# xmcd
# 
# Track frame offsets:
#     150
#     13635
#     26302
#     37140
#     51180
#     63587
#     73692
#     88517
#     103627
#     123267
# 
# Disc length: 1853
# 
# Revision: 6
# Processed by: cddbd v1.5.2PL0 Copyright (c) Steve Scherf et al.
# Submitted via: BonkEnc v1.0
# 
DISCID=81073b0a
DTITLE=Shania Twain - Shania Twain
DYEAR=1993
DGENRE=Country
TTITLE0=What Made You Say That
TTITLE1=You Lay A Whole Lot Of Love On Me
TTITLE2=Dance With The One That Brought You
TTITLE3=Still Under The Weather
TTITLE4=God Ain't Gonna Getcha for That
TTITLE5=Got A Hold On Me
TTITLE6=There Goes The Neighborhood
TTITLE7=Forget Me
TTITLE8=When He Leaves You
TTITLE9=Crime Of The Century
EXTD=
EXTT0=
EXTT1=
EXTT2=
EXTT3=
EXTT4=
EXTT5=
EXTT6=
EXTT7=
EXTT8=
EXTT9=
PLAYORDER=
